# xmcd
#
# Track frame offsets:
# 150
# 23270
# 41890
# 58022
# 78417
# 95537
# 108940
# 129007
# 141257
# 161052
# 178890
# 194657
# 211552
# 225627
#
# Disc length: 3274 seconds
#
#
# Revision: 0
# Processed by: cddbd v1.5.2PL0 Copyright (c) Steve Scherf et al.
# Submitted via: FreeRIP 2.95 
#
DISCID=b60cc80e
DTITLE=ZEZO O PRINCIPE DOS TECLADOS - ZEZO VOL.14 SERESTA AO VIVO
DYEAR=2007
DGENRE=SERESTA
TTITLE0=DECIDA
TTITLE1=EU QUERIA DIZER QUE TE AMO NUMA CANCAO
TTITLE2=O QUE MATA E A SOLIDAO
TTITLE3=MINHA SOLIDAO
TTITLE4=ENTRE ELE E EU
TTITLE5=BRIQUE COMIGO MAIS NAO VA
TTITLE6=EVIDENCIAS
TTITLE7=ORGULHO
TTITLE8=PEDINDO AMOR
TTITLE9=NENHUMA ESPERANCA
TTITLE10=AMOR TRAQUINO
TTITLE11=BEIJO GELADO
TTITLE12=PRA SEMPRE(DON'T LET IT DIE)
TTITLE13=MAE, UM PEDACO DO CEU
EXTD=
EXTT0=
EXTT1=
EXTT2=
EXTT3=
EXTT4=
EXTT5=
EXTT6=
EXTT7=
EXTT8=
EXTT9=
EXTT10=
EXTT11=
EXTT12=
EXTT13=
PLAYORDER=
